<svg width="249" height="83" viewBox="0 0 249 83" fill="none" xmlns="http://www.w3.org/2000/svg">
<path d="M19.375 60H5.46023V14.9091H19.9915C24.3655 14.9091 28.1084 15.8118 31.2202 17.6172C34.3319 19.4079 36.7171 21.9839 38.3757 25.3452C40.0343 28.6918 40.8636 32.6989 40.8636 37.3665C40.8636 42.0634 40.027 46.1072 38.3537 49.4979C36.6804 52.8738 34.2438 55.4718 31.044 57.2919C27.8442 59.0973 23.9545 60 19.375 60ZM10.9205 55.1562H19.0227C22.7509 55.1562 25.8407 54.437 28.2919 52.9986C30.7431 51.5601 32.5705 49.5125 33.7741 46.8558C34.9777 44.1991 35.5795 41.036 35.5795 37.3665C35.5795 33.7263 34.9851 30.5926 33.7962 27.9652C32.6072 25.3232 30.8312 23.2976 28.468 21.8885C26.1049 20.4647 23.1619 19.7528 19.6392 19.7528H10.9205V55.1562ZM56.1699 60.7926C54.0269 60.7926 52.0821 60.389 50.3354 59.5817C48.5887 58.7597 47.2016 57.5781 46.1741 56.0369C45.1467 54.4811 44.633 52.6023 44.633 50.4006C44.633 48.4631 45.0146 46.8925 45.7778 45.6889C46.5411 44.4706 47.5612 43.5166 48.8382 42.8267C50.1152 42.1368 51.5243 41.6231 53.0655 41.2855C54.6214 40.9332 56.1846 40.6544 57.7551 40.4489C59.81 40.1847 61.476 39.9865 62.753 39.8544C64.0447 39.7076 64.984 39.4654 65.5712 39.1278C66.173 38.7902 66.4739 38.2031 66.4739 37.3665V37.1903C66.4739 35.018 65.8794 33.33 64.6905 32.1264C63.5162 30.9228 61.7329 30.321 59.3403 30.321C56.8598 30.321 54.9149 30.8641 53.5058 31.9503C52.0967 33.0365 51.106 34.196 50.5335 35.429L45.6017 33.6676C46.4824 31.6127 47.6566 30.0128 49.1244 28.8679C50.6069 27.7083 52.2215 26.901 53.9682 26.446C55.7295 25.9763 57.4616 25.7415 59.1642 25.7415C60.2504 25.7415 61.498 25.8736 62.9071 26.1378C64.3309 26.3873 65.7033 26.9084 67.0243 27.701C68.36 28.4936 69.4682 29.6899 70.3489 31.2898C71.2295 32.8897 71.6699 35.0327 71.6699 37.7188V60H66.4739V55.4205H66.2097C65.8574 56.1544 65.2703 56.9396 64.4483 57.7763C63.6263 58.6129 62.5328 59.3248 61.1678 59.9119C59.8027 60.4991 58.1367 60.7926 56.1699 60.7926ZM56.9625 56.125C59.0174 56.125 60.7494 55.7214 62.1585 54.9141C63.5823 54.1068 64.6538 53.0646 65.373 51.7876C66.1069 50.5107 66.4739 49.1676 66.4739 47.7585V43.0028C66.2537 43.267 65.7693 43.5092 65.0207 43.7294C64.2868 43.9349 63.4355 44.1184 62.4668 44.2798C61.5127 44.4266 60.5806 44.5587 59.6706 44.6761C58.7752 44.7789 58.0487 44.867 57.4909 44.9403C56.1405 45.1165 54.8782 45.4027 53.704 45.799C52.5444 46.1806 51.605 46.7604 50.8858 47.5384C50.1813 48.3016 49.829 49.3437 49.829 50.6648C49.829 52.4702 50.4968 53.8352 51.8325 54.7599C53.1829 55.67 54.8929 56.125 56.9625 56.125ZM80.1894 72.6818C79.3087 72.6818 78.5234 72.6084 77.8336 72.4616C77.1437 72.3295 76.6667 72.1974 76.4025 72.0653L77.7235 67.4858C78.9858 67.8087 80.1013 67.9261 81.0701 67.8381C82.0388 67.75 82.8975 67.317 83.6461 66.5391C84.4093 65.7758 85.1065 64.5355 85.7377 62.8182L86.7064 60.1761L74.2007 26.1818H79.8371L89.1723 53.1307H89.5246L98.8598 26.1818H104.496L90.1411 64.9318C89.4953 66.6785 88.6953 68.1243 87.7412 69.2692C86.7872 70.4287 85.679 71.2874 84.4167 71.8452C83.169 72.4029 81.7599 72.6818 80.1894 72.6818Z" fill="black"/>
<path d="M110.048 63C109.493 63 109.28 62.7227 109.408 62.168L115.872 34.52C116.256 32.9413 115.744 32.152 114.336 32.152H112.992C112.309 32.152 111.968 31.8533 111.968 31.256C111.968 30.6587 112.352 30.36 113.12 30.36C114.443 30.36 115.424 30.1893 116.064 29.848C116.747 29.5067 117.195 28.824 117.408 27.8C117.963 25.368 118.773 23.2133 119.84 21.336C120.949 19.416 122.272 17.9013 123.808 16.792C125.344 15.6827 127.029 15.128 128.864 15.128C130.357 15.128 131.552 15.4907 132.448 16.216C133.387 16.8987 133.856 17.8587 133.856 19.096C133.856 20.0347 133.6 20.8027 133.088 21.4C132.619 21.9547 132.021 22.232 131.296 22.232C130.4 22.232 129.803 21.976 129.504 21.464C129.248 20.952 129.077 20.3547 128.992 19.672C128.949 18.9893 128.821 18.392 128.608 17.88C128.395 17.368 127.904 17.112 127.136 17.112C126.155 17.112 125.28 17.6027 124.512 18.584C123.787 19.5227 123.125 21.3147 122.528 23.96L121.248 29.528C121.12 30.0827 121.355 30.36 121.952 30.36H127.072C127.883 30.36 128.203 30.6587 128.032 31.256C127.904 31.8533 127.52 32.152 126.88 32.152H121.312C120.885 32.152 120.608 32.3653 120.48 32.792L113.632 62.296C113.504 62.7653 113.205 63 112.736 63H110.048ZM128.846 63C128.249 63 128.014 62.7227 128.142 62.168L134.222 36.632C134.435 35.6933 134.457 34.968 134.286 34.456C134.158 33.9013 133.774 33.624 133.134 33.624C132.366 33.624 131.513 34.2 130.574 35.352C129.678 36.4613 128.654 38.5947 127.502 41.752C127.331 42.3067 127.033 42.584 126.606 42.584C125.966 42.584 125.795 42.2 126.094 41.432C127.033 38.488 128.014 36.184 129.038 34.52C130.105 32.856 131.171 31.6827 132.238 31C133.305 30.3173 134.286 29.976 135.182 29.976C136.59 29.976 137.593 30.5093 138.19 31.576C138.787 32.6 138.809 34.3067 138.254 36.696L137.55 39.704C137.507 40.0027 137.571 40.1733 137.742 40.216C137.913 40.2587 138.062 40.152 138.19 39.896C139.811 36.184 141.283 33.6027 142.606 32.152C143.929 30.7013 145.443 29.976 147.15 29.976C148.302 29.976 149.155 30.296 149.71 30.936C150.307 31.5333 150.606 32.3653 150.606 33.432C150.606 34.4987 150.35 35.352 149.838 35.992C149.326 36.632 148.665 36.952 147.854 36.952C147.171 36.952 146.681 36.7813 146.382 36.44C146.083 36.0987 145.849 35.7147 145.678 35.288C145.55 34.8187 145.401 34.4133 145.23 34.072C145.059 33.7307 144.782 33.56 144.398 33.56C143.758 33.56 142.926 34.3707 141.902 35.992C140.878 37.6133 139.769 39.8107 138.574 42.584C137.422 45.3147 136.291 48.3867 135.182 51.8C134.115 55.2133 133.177 58.712 132.366 62.296C132.238 62.7653 131.939 63 131.47 63H128.846ZM152.884 63.576C151.348 63.576 150.153 62.9147 149.299 61.592C148.446 60.2693 148.02 58.328 148.02 55.768C148.02 53.336 148.361 50.904 149.044 48.472C149.726 45.9973 150.665 43.6507 151.86 41.432C153.054 39.2133 154.398 37.2507 155.892 35.544C157.428 33.8373 159.028 32.4933 160.692 31.512C162.398 30.488 164.084 29.976 165.748 29.976C166.558 29.976 167.326 30.1467 168.052 30.488C168.777 30.7867 169.374 31.2773 169.844 31.96C170.1 32.344 170.356 32.536 170.612 32.536C170.868 32.536 171.124 32.344 171.38 31.96C171.849 31.2773 172.233 30.8507 172.532 30.68C172.83 30.4667 173.108 30.36 173.364 30.36C173.918 30.36 174.132 30.6587 174.004 31.256L168.308 55.768C167.668 58.5413 168.094 59.928 169.588 59.928C170.569 59.928 171.444 59.2667 172.212 57.944C173.022 56.6213 173.833 54.5733 174.644 51.8C174.772 51.3307 175.049 51.096 175.476 51.096C175.774 51.096 175.966 51.224 176.052 51.48C176.137 51.736 176.137 52.0347 176.052 52.376C175.241 56.3867 174.153 59.2667 172.788 61.016C171.422 62.7227 169.78 63.576 167.86 63.576C166.196 63.576 165.001 62.872 164.276 61.464C163.593 60.056 163.529 58.136 164.083 55.704L164.916 52.184C165.001 51.8853 164.937 51.7147 164.724 51.672C164.553 51.6293 164.404 51.736 164.276 51.992C161.929 56.3013 159.838 59.3093 158.004 61.016C156.212 62.7227 154.505 63.576 152.884 63.576ZM154.484 60.312C155.508 60.312 156.638 59.6933 157.876 58.456C159.113 57.2187 160.329 55.6187 161.524 53.656C162.761 51.6933 163.892 49.5813 164.916 47.32C165.94 45.0587 166.75 42.8827 167.348 40.792C167.988 38.7013 168.308 36.9307 168.308 35.48C168.308 32.8773 167.39 31.576 165.556 31.576C164.446 31.576 163.273 32.088 162.036 33.112C160.798 34.0933 159.604 35.4373 158.452 37.144C157.342 38.8507 156.318 40.792 155.38 42.968C154.484 45.1013 153.758 47.3413 153.204 49.688C152.649 51.992 152.372 54.2533 152.372 56.472C152.372 57.9653 152.542 58.9893 152.884 59.544C153.268 60.056 153.801 60.312 154.484 60.312ZM215.324 63.576C213.788 63.576 212.636 62.936 211.868 61.656C211.1 60.376 211.057 58.392 211.74 55.704L216.668 37.144C217.137 35.48 217.201 34.328 216.86 33.688C216.561 33.048 216.113 32.728 215.516 32.728C214.663 32.728 213.681 33.3253 212.572 34.52C211.463 35.672 210.289 37.2507 209.052 39.256C207.857 41.2613 206.684 43.544 205.532 46.104C204.38 48.664 203.313 51.3307 202.332 54.104C201.351 56.8773 200.54 59.608 199.9 62.296C199.772 62.7653 199.473 63 199.004 63H196.508C195.911 63 195.676 62.7227 195.804 62.168L201.692 37.144C202.076 35.48 202.119 34.328 201.82 33.688C201.564 33.048 201.137 32.728 200.54 32.728C199.729 32.728 198.769 33.3253 197.66 34.52C196.551 35.672 195.399 37.2507 194.204 39.256C193.009 41.2613 191.836 43.544 190.684 46.104C189.532 48.664 188.465 51.3307 187.484 54.104C186.503 56.8773 185.713 59.608 185.116 62.296C184.988 62.7653 184.689 63 184.22 63H181.596C180.999 63 180.764 62.7227 180.892 62.168L186.972 36.632C187.185 35.6933 187.207 34.968 187.036 34.456C186.908 33.9013 186.524 33.624 185.884 33.624C185.116 33.624 184.263 34.2 183.324 35.352C182.428 36.4613 181.404 38.5947 180.252 41.752C180.081 42.3067 179.783 42.584 179.356 42.584C178.716 42.584 178.545 42.2 178.844 41.432C179.783 38.488 180.764 36.184 181.788 34.52C182.855 32.856 183.921 31.6827 184.988 31C186.055 30.3173 187.036 29.976 187.932 29.976C189.34 29.976 190.343 30.5093 190.94 31.576C191.537 32.6 191.559 34.3067 191.004 36.696L189.404 43.608C189.361 43.9067 189.425 44.0773 189.596 44.12C189.767 44.1627 189.916 44.056 190.044 43.8C192.519 38.68 194.759 35.096 196.764 33.048C198.769 31 200.604 29.976 202.268 29.976C203.847 29.976 204.956 30.616 205.596 31.896C206.279 33.176 206.321 35.1387 205.724 37.784L204.38 43.608C204.337 43.9067 204.401 44.0773 204.572 44.12C204.743 44.1627 204.892 44.056 205.02 43.8C206.641 40.344 208.156 37.6133 209.564 35.608C211.015 33.56 212.38 32.1093 213.66 31.256C214.94 30.4027 216.135 29.976 217.244 29.976C218.823 29.976 219.975 30.616 220.7 31.896C221.425 33.176 221.425 35.1387 220.7 37.784L215.836 56.344C215.537 57.5387 215.516 58.4347 215.772 59.032C216.028 59.6293 216.497 59.928 217.18 59.928C218.033 59.928 218.865 59.3733 219.676 58.264C220.529 57.112 221.404 54.9573 222.3 51.8C222.428 51.3307 222.705 51.096 223.132 51.096C223.473 51.096 223.665 51.224 223.708 51.48C223.793 51.736 223.793 52.0347 223.708 52.376C222.897 55.2773 222.023 57.56 221.084 59.224C220.145 60.8453 219.185 61.976 218.204 62.616C217.265 63.256 216.305 63.576 215.324 63.576ZM233.444 63.576C231.182 63.576 229.369 62.7013 228.004 60.952C226.638 59.16 225.956 56.6427 225.956 53.4C225.956 50.584 226.446 47.7893 227.428 45.016C228.452 42.2427 229.774 39.7253 231.396 37.464C233.017 35.2027 234.788 33.3893 236.708 32.024C238.67 30.6587 240.569 29.976 242.404 29.976C244.409 29.976 245.838 30.4667 246.692 31.448C247.588 32.3867 248.036 33.6667 248.036 35.288C248.036 37.208 247.353 39.128 245.988 41.048C244.665 42.9253 242.788 44.6107 240.356 46.104C237.966 47.5973 235.15 48.7067 231.908 49.432C230.969 49.6453 230.478 50.1787 230.436 51.032C230.393 51.3307 230.372 51.6507 230.372 51.992C230.372 52.2907 230.372 52.5893 230.372 52.888C230.372 55.32 230.777 57.1547 231.588 58.392C232.441 59.6293 233.593 60.248 235.044 60.248C236.665 60.248 238.222 59.5013 239.716 58.008C241.252 56.5147 242.532 54.4027 243.556 51.672C243.684 51.288 243.94 51.096 244.324 51.096C244.58 51.096 244.729 51.2027 244.772 51.416C244.857 51.6293 244.857 51.8853 244.772 52.184C243.406 55.9387 241.742 58.776 239.78 60.696C237.86 62.616 235.748 63.576 233.444 63.576ZM231.076 47C230.99 47.2987 231.033 47.5547 231.204 47.768C231.417 47.9387 231.673 47.9813 231.972 47.896C234.617 47.1707 236.836 46.0827 238.628 44.632C240.42 43.1387 241.764 41.4747 242.66 39.64C243.598 37.8053 244.068 36.0133 244.068 34.264C244.068 32.472 243.364 31.576 241.956 31.576C240.718 31.576 239.374 32.3013 237.924 33.752C236.473 35.2027 235.129 37.1013 233.892 39.448C232.654 41.7947 231.716 44.312 231.076 47Z" fill="black"/>
</svg>
